<svg height="512pt" viewBox="-79 0 512 512" width="512pt" xmlns="http://www.w3.org/2000/svg" xmlns:xlink="http://www.w3.org/1999/xlink"><linearGradient id="a" gradientUnits="userSpaceOnUse" x1="-.0001" x2="354.6601" y1="256" y2="256"><stop offset="0" stop-color="#80d8ff"/><stop offset="1" stop-color="#ea80fc"/></linearGradient><path d="m354.660156 98.820312v-39.492187c0-32.714844-26.613281-59.328125-59.332031-59.328125-32.714844 0-59.328125 26.613281-59.328125 59.328125v39.34375c0 17.925781-8.90625 34.5625-23.824219 44.507813l-34.847656 23.230468-34.84375-23.234375c-14.917969-9.941406-23.824219-26.578125-23.824219-44.503906v-39.34375c0-32.714844-26.613281-59.328125-59.332031-59.328125-32.714844 0-59.328125 26.613281-59.328125 59.328125v39.492187c0 95.296876 75.058594 139.046876 75.53125 139.570313-49.351562 46.628906-75.53125 110.160156-75.53125 174.9375v39.34375c0 32.789063 26.539062 59.328125 59.328125 59.328125 32.71875 0 59.332031-26.613281 59.332031-59.328125v-39.472656c0-73.574219 58.03125-106.230469 58.667969-106.933594.601563.660156 58.671875 33.535156 58.671875 106.933594v39.472656c0 32.714844 26.613281 59.328125 59.328125 59.328125 32.792969 0 59.332031-26.539062 59.332031-59.328125v-39.34375c0-64.714844-26.136718-128.269531-75.53125-174.9375l1.300782-.867187c46.1875-30.777344 74.230468-82.828126 74.230468-138.703126zm-314.660156 0v-39.492187c0-10.65625 8.671875-19.328125 19.328125-19.328125 10.660156 0 19.332031 8.671875 19.332031 19.328125v39.34375c0 31.332031 15.566406 60.414063 41.636719 77.789063l20.976563 13.984374-32.777344 21.851563-12.085938-8.0625c-35.09375-23.382813-56.410156-62.949219-56.410156-105.414063zm112.917969 175.648438c-46.496094 30.984375-74.257813 82.847656-74.257813 138.730469v39.472656c0 10.65625-8.671875 19.328125-19.332031 19.328125-10.679687 0-19.328125-8.648438-19.328125-19.328125v-39.34375c0-63.40625 30.070312-123.0625 80.726562-160.777344 5.128907-3.824219 109.570313-73.390625 113.636719-76.085937 26.070313-17.378906 41.636719-46.460938 41.636719-77.792969v-39.34375c0-10.65625 8.671875-19.328125 19.328125-19.328125 10.660156 0 19.332031 8.671875 19.332031 19.328125v39.492187c0 42.269532-21.148437 81.921876-56.417968 105.421876-17.792969 11.863281-89.722657 59.820312-105.324219 70.226562zm161.742187 138.859375v39.34375c0 10.679687-8.648437 19.328125-19.332031 19.328125-10.65625 0-19.328125-8.671875-19.328125-19.328125v-39.472656c0-51.265625-23.378906-99.140625-63.140625-130.625l31.941406-21.292969c45.753907 39.378906 69.859375 95.417969 69.859375 152.046875zm0 0" fill="url(#a)"/></svg>