<svg height="512" viewBox="0 0 59 62" width="512" xmlns="http://www.w3.org/2000/svg"><g id="048---Microscope" fill="none"><g id="Layer_4" transform="translate(1 1)"><g fill="#e8edfc"><circle id="Oval" cx="31" cy="5" r="4"/><circle id="Oval" cx="53.5" cy="5.5" r="3.5"/><path id="Shape" d="m29.71 27.46-2.83 2.82c-.2219067.2177656-.5318152.3210685-.84.28-.475-.054-.431-.131-3.4-3.1-1.509 1.5-1.478 1.52-1.79 1.64-.3619549.1312139-.7671306.0416077-1.04-.23l-1.42-1.41c-.3899779-.3930079-.3899779-1.0269921 0-1.42l-2.39-2.39c-.99111 1.0938402-2.504075 1.5529529-3.9359272 1.1943661-1.4318523-.3585867-2.54985216-1.4765866-2.90843891-2.9084389-.35858675-1.4318522.10052593-2.9448172 1.19436611-3.9359272l-6.81-6.81c-.38772359-.3900375-.38772359-1.0199625 0-1.41l.71-.71-3.53-3.53c-.38943376-.39323193-.38943376-1.02676807 0-1.42 2.007-2.013 1.372-1.382 2.82-2.83.39300794-.38997787 1.02699206-.38997787 1.42 0l3.53 3.54.71-.71c.39300794-.38997787 1.0269921-.38997787 1.42 0l14.84 14.85c.3930079-.3899779 1.0269921-.3899779 1.42 0l1.41 1.41c.3899779.3930079.3899779 1.0269921 0 1.42l-1.41 1.41 2.83 2.83c.3899779.3930079.3899779 1.0269921 0 1.42z"/></g><path id="Shape" d="m38 56v3h-36v-3c0-2.7614237 2.23857625-5 5-5h26c2.7614237 0 5 2.2385763 5 5z" fill="#a4c2f7"/><path id="Shape" d="m35 56v3h-33v-3c0-2.7614237 2.23857625-5 5-5h23c2.7614237 0 5 2.2385763 5 5z" fill="#cad9fc"/><path id="Shape" d="m35.49 41c-2.9726859 6.5886834-9.7904411 10.5733985-16.99 9.93-14.917-1.287-21.022-20.13-9.5-29.89.02141975 1.8705935 1.3392682 3.4752923 3.17 3.86v.01c-3.51142777 3.0152675-4.9745833 7.7818681-3.75962886 12.2479457 1.21495444 4.4660775 4.89118216 7.8345573 9.44619466 8.6554255 4.5550124.8208682 9.1758624-1.0523781 11.8734342-4.8133712z" fill="#a4c2f7"/><path id="Shape" d="m17 21c.0020295 2.0106796-1.4888412 3.7103737-3.4826323 3.970438s-3.87076811-1.0003377-4.38456575-2.9442638c-.51379763-1.943926.49528895-3.9671412 2.35719805-4.7261742 1.2327465-.5025461 2.6347278-.3588689 3.7399168.3832725s1.7687395 1.9854819 1.7700832 3.3167275z" fill="#a4c2f7"/><path id="Shape" d="m25.46 18.97-7.07 7.07-2.39-2.39c1.4319504-1.5803745 1.3722227-4.0062434-.135767-5.514233-1.5079896-1.5079897-3.9338585-1.5677174-5.514233-.135767l-6.81-6.81c-.38394159-.3915898-.38394159-1.0184102 0-1.41l5.66-5.66c.39300794-.38997787 1.0269921-.38997787 1.42 0z" fill="#e8edfc"/><path id="Shape" d="m28.29 21.8c-7.586 7.586-7.146 7.27-7.59 7.34-.3231357.064175-.6569865-.0371056-.89-.27l-1.42-1.41c-.3899779-.3930079-.3899779-1.0269921 0-1.42l7.07-7.07c.3930079-.3899779 1.0269921-.3899779 1.42 0l1.41 1.41c.3899779.3930079.3899779 1.0269921 0 1.42z" fill="#e8edfc"/><path id="Shape" d="m50 16c-.0000274 1.853011-.6433107 3.648549-1.82 5.08l-.76-1.05c-.6544574-.8974627-1.9125373-1.0944573-2.81-.4399999-.8974626.6544574-1.0944574 1.9125372-.44 2.8099999l.76 1.04c-3.2671106 1.2859297-6.9908675.2913039-9.1816407-2.4524417-2.1907732-2.7437455-2.3364948-6.5952921-.3593047-9.4967308 1.97719-2.90143864 5.6151465-4.1745917 8.9700831-3.13920435 3.3549367 1.03538734 5.6426759 4.13730525 5.6408623 7.64837685z" fill="#cad9fc"/><path id="Shape" d="m46.29 19.27c-.734935-.1837387-1.5107657.0611248-2.0070723.6334613-.4963065.5723365-.6288647 1.3750194-.3429277 2.0765387l-2.01 1.46c-.459902.181948-.9351189.3225051-1.42.42-3.7759506-.7183301-6.5073515-4.0204717-6.5049064-7.8641412.0024451-3.8436694 2.738045-7.14233332 6.5149064-7.8558588 2.3973692.46645822 4.4503375 2.002483 5.5744121 4.1707585 1.1240745 2.1682755 1.1961065 4.7312548.1955879 6.9592415z" fill="#e8edfc"/><path id="Shape" d="m50.38 24.11c-1.3585145.2805826-2.5596076 1.0670126-3.36 2.2-2.478-3.4-1.838-2.523-2.85-3.91-.6544574-.8974627-.4574626-2.1555425.44-2.8099999.8974627-.6544574 2.1555426-.4574628 2.81.4399999 1.028 1.39.341.47 2.96 4.08z" fill="#7facfa"/><path id="Shape" d="m41 39c-.0027483 1.1034291-.8965709 1.9972517-2 2h-11c-1.1045695 0-2-.8954305-2-2s.8954305-2 2-2h11c1.1032019.0032948 1.9967052.8967981 2 2z" fill="#cad9fc"/><path id="Shape" d="m38 39c-.0027483 1.1034291-.8965709 1.9972517-2 2h-8c-1.1045695 0-2-.8954305-2-2s.8954305-2 2-2h8c1.1032019.0032948 1.9967052.8967981 2 2z" fill="#e8edfc"/><circle id="Oval" cx="33.5" cy="34.5" fill="#e8edfc" r="2.5"/><path id="Shape" d="m57 29.5c.0007764 2.841824-2.1635634 5.2163042-4.993302 5.4781126-2.8297387.2618083-5.3929856-1.675274-5.9136123-4.4690013s1.1728198-5.5240682 3.9069143-6.2991113c1.6582406-.4700671 3.4409431-.1356022 4.8160256.9035673s2.1835035 2.6628536 2.1839744 4.3864327z" fill="#cad9fc"/><ellipse id="Oval" cx="50" cy="29.5" fill="#e8edfc" rx="4" ry="5.29"/></g><g id="Layer_3" fill="#fff" transform="translate(1 1)"><path id="Shape" d="m3.54 9.78c-.09858582.10027838-.17491358.220222-.224.352-.00834899.0329186-.01469397.0663132-.019.1-.02980094.1042469-.04196857.2127416-.036.321v.007c0 .023.013.045.015.068.00795205.0847265.02677325.1680775.056.248.04609561.118572.1174077.2257108.209.314l6.809 6.81c-.85868027.7606566-1.35017178 1.85286-1.35 3v.044c-.59222834.5022503-1.14703363 1.047029-1.66 1.63-4.2929035 4.789706-5.51200447 11.593426-3.14924161 17.5757044 2.36276286 5.9822785 7.90200451 10.1167211 14.30924161 10.6802956.4984912.048731.999137.0720944 1.5.07.5 0 1-.028 1.492-.071-6.4070138-.5654331-11.945015-4.7014169-14.3060738-10.6843044-2.3610588-5.9828874-1.14009037-12.7861995 3.1540738-17.5746956.5129664-.582971 1.0677717-1.1277497 1.66-1.63 0-.015 0-.029 0-.044-.0001718-1.14714.4913197-2.2393434 1.35-3l-8.06-7.996c-.0915923-.08828921-.16290439-.19542795-.209-.314-.02922675-.07992249-.04804795-.16327355-.056-.248 0-.023-.014-.045-.015-.068v-.007c-.00596857-.10825842.00619906-.21675311.036-.321.00430603-.03368677.01065101-.0670814.019-.1.04938122-.13186572.12605413-.25181623.225-.352l.71-.71-2.28-2.34c-.38997787-.39300794-.38997787-1.02699206 0-1.42l1.67-1.68.359-.359-.789-.791c-.39300794-.38997787-1.02699206-.38997787-1.42 0l-1.15 1.15-1.67 1.68c-.38997787.39300794-.38997787 1.02699206 0 1.42l3.53 3.53z"/><path id="Shape" d="m10 51h-3c-2.76142375 0-5 2.2385763-5 5v3h3v-3c0-2.7614237 2.23857625-5 5-5z"/></g><path id="Shape" d="m6.241 28.824-1.841-.774c1.10302436-2.6119499 2.79996071-4.9306854 4.956-6.772l1.3 1.524c-1.92011093 1.6365318-3.43185787 3.6985341-4.415 6.022z" fill="#fff"/><g fill="#428dff"><path id="Shape" d="m7.3 25.954c-.55228475.0027614-1.00223858-.4427153-1.005-.995s.44271525-1.0022386.995-1.005h.01c.55228475 0 1 .4477153 1 1s-.44771525 1-1 1z"/><path id="Shape" d="m41.684 12.052c-.151.048-3.684 1.269-3.684 4.948 0 .5522847.4477153 1 1 1s1-.4477153 1-1c.0817409-1.3946313.9990392-2.6012284 2.321-3.053.5079608-.1869159.775005-.7440582.6025447-1.2571071-.1724602-.5130489-.721819-.7957592-1.2395447-.6378929z"/><path id="Shape" d="m54.5 11c2.4852814 0 4.5-2.01471863 4.5-4.5s-2.0147186-4.5-4.5-4.5-4.5 2.01471863-4.5 4.5c.0050287.74541856.1976121 1.47757917.56 2.129l-1.76 1.504c-3.1886541-2.70506824-7.822097-2.85224722-11.176-.355l-1.36-1.21c.4761852-.77230975.7308026-1.66070308.736-2.568.0165324-2.33100289-1.568833-4.36870338-3.8323484-4.92579049-2.2635153-.55708712-4.6135242.51205518-5.6807423 2.58446763-1.0672181 2.07241244-.5726871 4.60639075 1.1954436 6.12545677 1.7681307 1.51906599 4.3476926 1.62615369 6.2356471.25886609l1.246 1.108c-2.2824498 2.6692687-2.8036883 6.422404-1.3350102 9.6126324 1.4686781 3.1902283 4.6589496 5.2347044 8.1710102 5.2363676.8650826-.0005425 1.7254647-.1272079 2.554-.376l1.261 1.731c-1.4181804 2.5651241-.9441539 5.7620697 1.1573316 7.805316 2.1014856 2.0432463 5.3104879 2.4272603 7.8347523.9375669s3.739246-4.4845193 2.9663674-7.3118424-3.3423944-4.7876167-6.2734513-4.7860405c-.2224286.0002014-.4447073.011549-.666.034l-1.414-1.944c1.0264299-1.4992285 1.5770525-3.2730697 1.58-5.09-.0005095-1.9538901-.6411892-3.8538006-1.824-5.409l1.7-1.453c.7616133.5573746 1.680224.8591439 2.624.862zm-2.5-4.5c0-1.38071187 1.1192881-2.5 2.5-2.5s2.5 1.11928813 2.5 2.5-1.1192881 2.5-2.5 2.5c-.3561575-.00110855-.7078629-.07922739-1.031-.229l1.182-1.012c.3948857-.36483997.4306334-.97661021.0809275-1.38495902-.3497058-.40834882-.9596952-.46711627-1.3809275-.13304098l-1.214 1.038c-.0874371-.25056394-.1337031-.51363862-.137-.779zm-20 2.5c-1.6568542 0-3-1.34314575-3-3s1.3431458-3 3-3 3 1.34314575 3 3c-.000677.41712242-.0892695.829418-.26 1.21l-1.076-.957c-.2647469-.25149768-.6455292-.33869269-.9933366-.22746331-.3478075.11122937-.6073333.40319591-.6770182.76164538-.0696848.35844948.0615523.7263828.3423548.95981793l1.025.911c-.4197505.2212995-.8864979.3385865-1.361.342zm4 8c-.0095488-2.9271812 1.8032788-5.5512121 4.5444702-6.5780277 2.7411915-1.02681574 5.8318417-.2395658 7.7477684 1.9735104 1.9159267 2.2130761 2.2525103 5.3846046.8437614 7.9505173-1.0127062-1.2165445-2.7963484-1.4369621-4.0747409-.5035453-1.2783925.9334169-1.6116195 2.6994642-.7612591 4.0345453-.4284511.082141-.8637462.1233266-1.3.123-3.8639376-.0049584-6.9950416-3.1360624-7-7zm21 13.5c0 2.4852814-2.0147186 4.5-4.5 4.5s-4.5-2.0147186-4.5-4.5 2.0147186-4.5 4.5-4.5c2.4841391.0027556 4.4972444 2.0158609 4.5 4.5zm-8.9-4.774-2.12-2.914c-.3088852-.4494277-.2043293-1.0630151.2359681-1.3847813s1.0566544-.2350168 1.3910319.1957813l2.169 2.983c-.6135089.2839079-1.1789737.6617841-1.676 1.12z"/><path id="Shape" d="m40 37h-2.351c.2281069-.4673157.3480732-.9799922.351-1.5 0-1.9329966-1.5670034-3.5-3.5-3.5s-3.5 1.5670034-3.5 3.5c.0029268.5200078.1228931 1.0326843.351 1.5h-2.351c-1.5674497-.0003667-2.8698687 1.2082765-2.986413 2.7713876s.9922397 2.9515316 2.542413 3.1836124c-2.8430103 2.7716294-6.9611329 3.7919578-10.7692723 2.6682534-3.8081393-1.1237044-6.7126325-4.2162638-7.5955187-8.0873294-.88288616-3.8710656.3934705-7.9171647 3.337791-10.580924.157.015.31.048.471.048 1.0639394-.002795 2.098689-.3481791 2.951-.985l1.224 1.225c-.1846695.6864389.0104468 1.4192684.512 1.923l1.413 1.411c.7809997.7807639 2.0470003.7807639 2.828 0l.707-.707 2.122 2.121c.7809997.7807639 2.0470003.7807639 2.828 0l2.828-2.828c.7807639-.7809997.7807639-2.0470003 0-2.828l-2.121-2.122.708-.707c.7807639-.7809997.7807639-2.0470003 0-2.828l-1.414-1.414c-.5050764-.5020841-1.2396816-.6965048-1.927-.51l-14.342-14.354c-.7881161-.76346332-2.0413106-.75902566-2.824.01l-2.828-2.824c-.7809997-.78076388-2.0470003-.78076388-2.828 0l-2.828 2.828c-.78076388.7809997-.78076388 2.0470003 0 2.828l2.827 2.828c-.77810178.7805395-.77810178 2.0434605 0 2.824l6.152 6.152c-.83734582 1.1201695-1.1610945 2.5425745-.89103347 3.9147971s1.10866337 2.5658704 2.30803347 3.2852029c-3.22828424 3.5061074-4.27508913 8.4996029-2.72671764 13.0070583 1.54837154 4.5074553 5.44277234 7.8035802 10.14413634 8.5857469 4.7013641.7821667 9.4531992-1.0754826 12.3775813-4.8388052h3.64c-2.8572991 4.9432381-8.1303866 7.9912656-13.84 8-2.6336206-.0233195-5.2236674-.674688-7.555-1.9-2.3114021-1.2633321-4.28757741-3.0605408-5.764-5.242-1.44470446-2.2010532-2.336641-4.7183725-2.6-7.338-.25091153-2.6233287.14888858-5.2680545 1.164-7.7.19637673-.499503-.02498587-1.0659821-.508-1.3-.24615845-.1185074-.53066482-.1286503-.78463742-.0279731-.2539726.1006773-.45425705.3029961-.55236258.5579731-1.1423523 2.7360207-1.59230474 5.7115458-1.31 8.663.2960487 2.9489114 1.30169854 5.7822981 2.931 8.258 1.65824967 2.4563043 3.88098135 4.4794633 6.482 5.9.09.047.183.088.274.134h-4.777c-3.31233757.0033074-5.99669262 2.6876624-6 6v2h-1c-.55228475 0-1 .4477153-1 1s.44771525 1 1 1h40c.5522847 0 1-.4477153 1-1s-.4477153-1-1-1h-1v-2.005c-.0033074-3.3123376-2.6876624-5.9966926-6-6h-4.786c3.4211578-1.7531368 6.1900337-4.5570617 7.9-8h2.886c1.6568542 0 3-1.3431458 3-3s-1.3431458-3-3-3zm-10-9.251-2.828 2.828-2.122-2.121 2.829-2.829zm-1.413-5.658-1.415 1.415-4.243 4.243-1.414 1.414-1.415-1.414 7.071-7.071zm-26.164-16.263 2.828-2.828 2.828 2.827-2.829 2.829zm3.531 4.953 1.182-1.181 3.777-3.774 14.133 14.144-5.656 5.656-1.1-1.1c.1323527-.2153529.2477027-.4407033.345-.674v-.013c.2375646-.5841935.3614476-1.2083603.365-1.839-.0033061-2.7600532-2.2399468-4.9966939-5-5-.8908986.0048037-1.7639662.2501056-2.527.71l-6.226-6.223zm8.046 8.219c1.6568542 0 3 1.3431458 3 3-.0018693.3612359-.0696463.7190982-.2 1.056-.0073849.0206684-.0137262.0416949-.019.063-.5631526 1.4008314-2.0796024 2.1649001-3.5405322 1.78391-1.4609299-.3809901-2.4111089-1.7883211-2.2184313-3.2857672s1.4681728-2.6183977 2.9779635-2.6171428zm20 34c2.209139 0 4 1.790861 4 4v2h-34v-2c0-2.209139 1.790861-4 4-4zm-1-17.5c0-.8284271.6715729-1.5 1.5-1.5s1.5.6715729 1.5 1.5-.6715729 1.5-1.5 1.5-1.5-.6715729-1.5-1.5zm7 5.5h-11c-.5522847 0-1-.4477153-1-1s.4477153-1 1-1h11c.5522847 0 1 .4477153 1 1s-.4477153 1-1 1z"/></g></g></svg>