<?xml version="1.0" encoding="iso-8859-1"?>
<!-- Generator: Adobe Illustrator 19.0.0, SVG Export Plug-In . SVG Version: 6.00 Build 0)  -->
<svg version="1.1" id="Capa_1" xmlns="http://www.w3.org/2000/svg" xmlns:xlink="http://www.w3.org/1999/xlink" x="0px" y="0px"
	 viewBox="0 0 512 512" style="enable-background:new 0 0 512 512;" xml:space="preserve">
<path style="fill:#1138F7;" d="M256,469.334c-8.96,0-17.024-5.632-20.075-14.165l-84.331-236.096l-24.427,85.44
	c-2.603,9.173-10.987,15.488-20.501,15.488H21.333C9.557,320.001,0,310.465,0,298.668c0-11.797,9.557-21.333,21.333-21.333h69.248
	l38.251-133.867c2.539-8.917,10.539-15.168,19.819-15.467c9.344-0.107,17.664,5.419,20.779,14.144l81.792,229.035l69.291-311.808
	c2.133-9.579,10.517-16.469,20.331-16.704c10.027-0.128,18.496,6.251,21.077,15.701l59.712,218.965h69.035
	c11.797,0,21.333,9.536,21.333,21.333c0,11.797-9.536,21.333-21.333,21.333h-85.333c-9.621,0-18.048-6.443-20.587-15.723
	l-41.323-151.445L276.8,452.63c-2.069,9.301-10.005,16.085-19.499,16.661C256.875,469.313,256.448,469.334,256,469.334z"/>
<g>
</g>
<g>
</g>
<g>
</g>
<g>
</g>
<g>
</g>
<g>
</g>
<g>
</g>
<g>
</g>
<g>
</g>
<g>
</g>
<g>
</g>
<g>
</g>
<g>
</g>
<g>
</g>
<g>
</g>
</svg>
